{
	"asset":{
		"generator":"Khronos glTF Blender I/O v3.6.27",
		"version":"2.0"
	},
	"scene":0,
	"scenes":[
		{
			"name":"Scene",
			"nodes":[
				0
			]
		}
	],
	"nodes":[
		{
			"mesh":0,
			"name":"lr_parts"
		}
	],
	"materials":[
		{
			"doubleSided":true,
			"name":"Material",
			"pbrMetallicRoughness":{
				"baseColorFactor":[
					0.800000011920929,
					0.800000011920929,
					0.800000011920929,
					1
				],
				"metallicFactor":0,
				"roughnessFactor":0.5
			}
		}
	],
	"meshes":[
		{
			"name":"lr_parts",
			"primitives":[
				{
					"attributes":{
						"POSITION":0,
						"NORMAL":1,
						"TEXCOORD_0":2
					},
					"indices":3,
					"material":0
				}
			]
		}
	],
	"accessors":[
		{
			"bufferView":0,
			"componentType":5126,
			"count":17028,
			"max":[
				1.0303694009780884,
				4.082808971405029,
				1.3361817598342896
			],
			"min":[
				-0.8653007745742798,
				-0.010336766950786114,
				-2.051586151123047
			],
			"type":"VEC3"
		},
		{
			"bufferView":1,
			"componentType":5126,
			"count":17028,
			"type":"VEC3"
		},
		{
			"bufferView":2,
			"componentType":5126,
			"count":17028,
			"type":"VEC2"
		},
		{
			"bufferView":3,
			"componentType":5123,
			"count":44934,
			"type":"SCALAR"
		}
	],
	"bufferViews":[
		{
			"buffer":0,
			"byteLength":204336,
			"byteOffset":0,
			"target":34962
		},
		{
			"buffer":0,
			"byteLength":204336,
			"byteOffset":204336,
			"target":34962
		},
		{
			"buffer":0,
			"byteLength":136224,
			"byteOffset":408672,
			"target":34962
		},
		{
			"buffer":0,
			"byteLength":89868,
			"byteOffset":544896,
			"target":34963
		}
	],
	"buffers":[
		{
			"byteLength":634764,
			"uri":"data:application/octet-stream;base64,"
		}
	]
}
